<svg width="75" height="25" viewBox="0 0 75 25" fill="none" xmlns="http://www.w3.org/2000/svg">
<rect width="75" height="25" rx="12.5" fill="#E0161D"/>
<path d="M13.4814 13.76V11.72H19.5214V13.76H13.4814ZM30.2069 5.3C31.1135 5.3 31.8935 5.46667 32.5469 5.8C33.2135 6.13333 33.7202 6.58667 34.0669 7.16C34.4135 7.73333 34.5869 8.37333 34.5869 9.08C34.5869 9.84 34.4202 10.5733 34.0869 11.28C33.7669 11.9733 33.2269 12.7467 32.4669 13.6C31.7069 14.4533 30.5935 15.58 29.1269 16.98H34.8869L34.6069 19H26.2269V17.12C27.9335 15.3867 29.1535 14.1067 29.8869 13.28C30.6335 12.44 31.1602 11.7267 31.4669 11.14C31.7869 10.54 31.9469 9.92 31.9469 9.28C31.9469 8.66667 31.7669 8.18667 31.4069 7.84C31.0602 7.49333 30.5935 7.32 30.0069 7.32C29.4869 7.32 29.0269 7.43333 28.6269 7.66C28.2402 7.87333 27.8335 8.23333 27.4069 8.74L25.8469 7.5C26.9802 6.03333 28.4335 5.3 30.2069 5.3ZM44.4636 7.44H39.4236V10.78C40.0903 10.4467 40.7703 10.28 41.4636 10.28C42.2103 10.28 42.8769 10.4533 43.4636 10.8C44.0503 11.1467 44.5036 11.6467 44.8236 12.3C45.1569 12.9533 45.3236 13.7267 45.3236 14.62C45.3236 15.54 45.1169 16.3533 44.7036 17.06C44.2903 17.7667 43.7036 18.32 42.9436 18.72C42.1836 19.1067 41.3036 19.3 40.3036 19.3C39.4103 19.3 38.6169 19.14 37.9236 18.82C37.2436 18.4867 36.6236 18.0133 36.0636 17.4L37.5236 16.04C38.2969 16.8933 39.2036 17.32 40.2436 17.32C41.0036 17.32 41.5969 17.0867 42.0236 16.62C42.4636 16.1533 42.6836 15.4867 42.6836 14.62C42.6836 12.9533 41.9636 12.12 40.5236 12.12C40.2169 12.12 39.9303 12.16 39.6636 12.24C39.3969 12.3067 39.1036 12.42 38.7836 12.58H36.9636V5.54H44.7636L44.4636 7.44ZM57.9436 4.68L59.6036 5.74L50.3236 19.72L48.6836 18.66L57.9436 4.68ZM49.8236 5.3C50.4636 5.3 51.0436 5.44667 51.5636 5.74C52.0836 6.02 52.4903 6.42667 52.7836 6.96C53.0903 7.49333 53.2436 8.10667 53.2436 8.8C53.2436 9.49333 53.0903 10.1067 52.7836 10.64C52.4903 11.1733 52.0836 11.5867 51.5636 11.88C51.0436 12.16 50.4636 12.3 49.8236 12.3C49.1836 12.3 48.6036 12.16 48.0836 11.88C47.5769 11.5867 47.1703 11.1733 46.8636 10.64C46.5703 10.1067 46.4236 9.49333 46.4236 8.8C46.4236 8.10667 46.5703 7.49333 46.8636 6.96C47.1703 6.42667 47.5769 6.02 48.0836 5.74C48.6036 5.44667 49.1836 5.3 49.8236 5.3ZM49.8236 6.9C49.3036 6.9 48.9303 7.08 48.7036 7.44C48.4903 7.78667 48.3836 8.24 48.3836 8.8C48.3836 9.34667 48.4903 9.8 48.7036 10.16C48.9303 10.52 49.3036 10.7 49.8236 10.7C50.7836 10.7 51.2636 10.0667 51.2636 8.8C51.2636 7.53333 50.7836 6.9 49.8236 6.9ZM58.4236 12.3C59.0636 12.3 59.6436 12.4467 60.1636 12.74C60.6836 13.02 61.0903 13.4267 61.3836 13.96C61.6769 14.4933 61.8236 15.1067 61.8236 15.8C61.8236 16.4933 61.6769 17.1067 61.3836 17.64C61.0903 18.1733 60.6836 18.5867 60.1636 18.88C59.6436 19.16 59.0636 19.3 58.4236 19.3C57.7836 19.3 57.2036 19.16 56.6836 18.88C56.1636 18.5867 55.7503 18.1733 55.4436 17.64C55.1503 17.1067 55.0036 16.4933 55.0036 15.8C55.0036 15.1067 55.1503 14.4933 55.4436 13.96C55.7503 13.4267 56.1636 13.02 56.6836 12.74C57.2036 12.4467 57.7836 12.3 58.4236 12.3ZM58.4236 13.9C57.9036 13.9 57.5303 14.08 57.3036 14.44C57.0903 14.7867 56.9836 15.24 56.9836 15.8C56.9836 16.3467 57.0903 16.8 57.3036 17.16C57.5303 17.52 57.9036 17.7 58.4236 17.7C59.3836 17.7 59.8636 17.0667 59.8636 15.8C59.8636 14.5333 59.3836 13.9 58.4236 13.9Z" fill="white"/>
</svg>
